<svg height="24" viewBox="0 -118 512.0005 512" width="24" xmlns="http://www.w3.org/2000/svg" style="width: 1em; height: 1em; vertical-align: middle; fill: currentcolor; overflow: hidden; font-size: 24px;"><path d="m115.308594 31.097656-71.269532 106.90625 71.269532 106.902344c6.125 9.191406 3.644531 21.609375-5.546875 27.738281-9.167969 6.109375-21.589844 3.667969-27.734375-5.546875l-78.667969-118c-4.480469-6.71875-4.480469-15.472656 0-22.191406l78.667969-118c6.125-9.1875 18.542968-11.671875 27.734375-5.546875 9.191406 6.128906 11.671875 18.546875 5.546875 27.738281zm393.332031 95.808594-78.667969-118c-6.125-9.1875-18.542968-11.671875-27.734375-5.546875-9.191406 6.128906-11.671875 18.546875-5.546875 27.738281l71.273438 106.90625-71.273438 106.902344c-6.125 9.191406-3.644531 21.609375 5.546875 27.738281 9.152344 6.101563 21.582031 3.683594 27.734375-5.546875l78.667969-118c4.480469-6.71875 4.480469-15.472656 0-22.191406zm-162.878906-123.546875c-9.191407-6.125-21.609375-3.640625-27.738281 5.546875l-157.332032 236c-6.125 9.191406-3.644531 21.609375 5.546875 27.738281 9.152344 6.101563 21.582031 3.683594 27.734375-5.546875l157.335938-236c6.125-9.191406 3.644531-21.609375-5.546875-27.738281zm0 0" fill="#b2b2b2"></path></svg>